<svg viewBox="0 0 1024 1024" xmlns="http://www.w3.org/2000/svg"><path d="M659.977 173.447c-22.622-18.567-49.296-32.35-80.597-40.557-5.97-7.387-13.14-13.758-21.215-18.83-19.94-41.214-45.574-83.07-45.574-83.07s-25.61 41.824-45.546 83.023c-6.884 4.313-13.113 9.567-18.502 15.596-37.17 7.428-68.22 22.24-94.043 43.23C161.966 141.22-11.37 334.66 49.97 538.53c24.673 81.995 145.47 134.643 208.19 100.293-118.223.195-153.345-128.234-116.787-217.315 23.368-56.94 64.357-89.096 121.05-89.422-18.778 70.384-25.497 154.13-25.497 244.01H377.88c-3.368 23.995-4.845 50.01-5.032 77.223-3.272 29.42 17.892 152.49 17.892 152.49s60.388-99.86 71.354-132.338c12.29 47.928 45.57 137.122 45.57 137.122s32.954-88.33 45.386-136.423c11.583 33.193 71.115 131.64 71.115 131.64s21.81-126.813 17.73-153.76c-.225-26.754-1.705-52.334-5.022-75.957h139.905c0-89.86-6.715-173.597-25.486-243.974 58.92-1.306 101.383 31.02 125.336 89.386 36.558 89.08 1.437 217.51-116.788 217.315 62.72 34.35 183.518-18.297 208.19-100.29 61.717-205.115-114.117-399.668-308.053-365.083zm-276.298 187c17.756 18.876 42.985 32.385 78.19 38.42 0 .05.004.098.004.148 0 26.85-21.768 48.616-48.614 48.616s-48.614-21.764-48.614-48.615c0-15.717 7.465-29.68 19.033-38.566zm274.004 38.567c-.002 26.85-21.768 48.616-48.614 48.616s-48.614-21.765-48.614-48.616c0-.613.023-1.22.047-1.826 32.818-7.118 56.287-21.222 72.756-40.334 3.524 2.026 6.77 4.48 9.666 7.292l.025.094.05-.025c9.053 8.828 14.684 21.153 14.684 34.8zM228.208 897.06c-23.582 87.995 98.112 114.824 120.247 32.22 8.895-33.206-8.048-210.467-8.048-210.467s-103.304 145.035-112.2 178.248zM670.52 718.814s-16.944 177.26-8.048 210.468c22.135 82.604 143.828 55.775 120.247-32.22-8.898-33.21-112.2-178.247-112.2-178.247zm-111.58 47.37s-32.803 127.43-30.137 152.7c6.632 62.846 98.55 57.288 91.485-9.658-2.66-25.266-61.348-143.04-61.348-143.04zM394.187 909.226c-7.064 66.948 84.853 72.504 91.485 9.657 2.664-25.27-30.137-152.698-30.137-152.698s-58.685 117.775-61.348 143.04z"/></svg>